<?xml version="1.0" encoding="UTF-8" standalone="no"?>
<!DOCTYPE svg PUBLIC "-//W3C//DTD SVG 1.1//EN" "http://www.w3.org/Graphics/SVG/1.1/DTD/svg11.dtd">
<svg xmlns="http://www.w3.org/2000/svg" version="1.1" viewBox="0 0 512 512">
<ellipse fill="#000000" cx="0.00" cy="0.00" transform="translate(199.62,117.70) rotate(90.0)" rx="85.57" ry="75.09"/>
<ellipse fill="#000000" cx="0.00" cy="0.00" transform="translate(354.26,149.87) rotate(108.6)" rx="78.41" ry="68.96"/>
<path fill="#000000" d="
  M 0.00 199.69
  L 0.00 195.19
  C 1.37 154.26 35.65 120.64 78.07 133.67
  C 109.02 143.17 129.02 173.14 131.16 204.57
  C 133.45 238.10 111.87 271.78 76.31 274.70
  C 33.89 278.17 2.35 239.69 0.00 199.69
  Z"
/>
<path fill="#000000" d="
  M 512.00 263.06
  L 512.00 267.31
  Q 509.57 302.94 482.84 325.59
  C 447.15 355.84 390.03 346.88 378.53 296.99
  C 370.36 261.53 391.13 225.00 423.24 209.72
  C 465.29 189.73 510.00 215.87 512.00 263.06
  Z"
/>
<path fill="#000000" d="
  M 138.68 262.75
  C 187.74 199.89 280.74 197.45 332.76 258.46
  Q 337.42 263.93 344.40 274.69
  Q 367.45 310.23 390.21 345.99
  Q 400.07 361.50 400.85 362.93
  C 416.29 391.16 412.36 427.37 391.81 451.31
  C 372.91 473.34 344.28 483.54 315.74 477.79
  C 303.97 475.43 291.68 469.02 279.27 465.62
  Q 235.47 453.61 191.51 466.75
  C 182.46 469.45 169.97 475.46 160.17 477.57
  C 90.38 492.63 39.30 415.89 77.85 356.18
  Q 102.67 317.74 127.40 279.25
  Q 134.82 267.69 138.68 262.75
  Z"
/>
</svg>
